<?xml version="1.0" standalone="no"?>
<!DOCTYPE svg PUBLIC "-//W3C//DTD SVG 20010904//EN"
 "http://www.w3.org/TR/2001/REC-SVG-20010904/DTD/svg10.dtd">
<svg version="1.0" xmlns="http://www.w3.org/2000/svg"
 width="512.000000pt" height="512.000000pt" viewBox="0 0 512.000000 512.000000"
 preserveAspectRatio="xMidYMid meet">
<metadata>
Created by potrace 1.14, written by Peter Selinger 2001-2017
</metadata>
<g transform="translate(0.000000,512.000000) scale(0.100000,-0.100000)"
fill="#000000" stroke="none">
<path d="M267 4898 c-100 -14 -186 -79 -235 -178 l-27 -55 -2 -2105 c-2 -2017
-2 -2107 16 -2158 32 -93 120 -177 214 -204 31 -8 299 -12 1016 -12 814 -1
979 1 1003 13 69 33 75 126 11 168 -26 17 -80 18 -1000 19 -1050 0 -1003 -2
-1040 53 -17 25 -18 121 -21 1667 l-2 1642 2360 0 2360 0 0 -1635 c0 -1621 0
-1636 -20 -1668 -38 -61 1 -59 -993 -60 l-909 0 -29 -33 c-39 -44 -39 -90 0
-134 l29 -32 903 -1 c497 0 926 3 953 8 104 18 194 88 240 186 l21 46 0 2120
0 2120 -21 46 c-39 84 -112 150 -199 180 -33 11 -425 13 -2311 14 -1248 0
-2291 -3 -2317 -7z m4597 -213 c53 -36 56 -55 56 -410 l0 -325 -32 0 c-56 -1
-4662 -1 -4675 0 -19 0 -18 638 1 683 15 36 49 63 87 69 13 1 1039 3 2279 3
2209 -1 2256 -1 2284 -20z"/>
<path d="M639 4416 c-47 -15 -75 -72 -59 -120 32 -99 173 -84 187 20 4 33 1
45 -21 71 -30 36 -61 44 -107 29z"/>
<path d="M1148 4422 c-76 -10 -104 -107 -48 -164 28 -27 36 -30 77 -25 74 8
108 69 76 135 -20 39 -60 60 -105 54z"/>
<path d="M1625 4416 c-52 -22 -73 -70 -54 -124 35 -100 189 -71 189 35 0 68
-72 116 -135 89z"/>
<path d="M2495 4422 c-85 -18 -108 -125 -37 -177 26 -19 50 -19 1002 -20 536
0 989 3 1005 7 74 19 98 102 46 160 l-29 33 -984 0 c-541 0 -992 -1 -1003 -3z"/>
<path d="M1063 2962 c-26 -4 -72 -48 -74 -71 -1 -9 -3 -254 -4 -546 -2 -574
-2 -577 51 -606 29 -15 366 -21 443 -7 271 49 391 372 217 584 -25 29 -25 31
-8 50 85 93 114 263 64 377 -43 98 -132 177 -232 207 -41 12 -393 21 -457 12z
m417 -210 c144 -63 126 -267 -27 -300 -30 -6 -213 -9 -258 -3 -7 1 -10 56 -9
154 1 83 2 155 3 158 2 10 265 2 291 -9z m0 -520 c54 -22 100 -89 100 -147 0
-58 -46 -125 -100 -147 -26 -11 -275 -18 -288 -8 -10 7 -11 303 0 310 14 10
262 3 288 -8z"/>
<path d="M2044 2962 c-12 -1 -34 -16 -49 -32 l-28 -29 -1 -418 c-1 -230 2
-442 6 -471 19 -153 157 -280 307 -283 62 -2 98 21 111 72 19 68 -15 108 -110
128 -51 11 -109 65 -111 103 0 13 -2 205 -3 428 -2 223 -4 414 -5 425 -4 47
-63 86 -117 77z"/>
<path d="M2795 2436 c-161 -44 -268 -186 -267 -355 3 -286 333 -455 564 -289
61 44 86 74 120 146 33 68 43 165 26 232 -52 198 -250 317 -443 266z m152
-201 c77 -32 113 -104 93 -183 -41 -164 -265 -167 -310 -4 -25 93 56 200 153
202 15 0 44 -7 64 -15z"/>
<path d="M3695 2439 c-83 -19 -168 -76 -215 -143 -137 -201 -47 -476 181 -551
64 -22 173 -22 223 -1 21 9 41 14 45 11 13 -7 5 -189 -9 -215 -75 -146 -284
-111 -306 51 -13 92 -69 134 -141 104 -51 -21 -68 -71 -53 -149 12 -61 45
-134 78 -172 35 -41 112 -92 162 -109 138 -46 284 -5 384 106 83 92 89 122 91
447 1 155 -2 306 -7 334 -24 133 -123 242 -253 281 -53 15 -130 18 -180 6z
m138 -203 c33 -13 96 -77 98 -99 5 -57 4 -76 -8 -107 -47 -120 -198 -140 -278
-36 -58 76 -32 187 55 233 49 26 87 29 133 9z"/>
<path d="M1071 942 c-72 -11 -106 -81 -71 -147 28 -52 -57 -49 1545 -50 820 0
1500 1 1512 3 57 10 92 86 66 140 -29 60 77 56 -1543 57 -817 0 -1496 -2
-1509 -3z"/>
<path d="M2592 375 c-44 -19 -66 -57 -59 -101 11 -67 65 -100 127 -80 41 13
76 72 66 110 -15 60 -78 94 -134 71z"/>
</g>
</svg>
